<svg xmlns="http://www.w3.org/2000/svg" height="10px" width="10px" fill="white">
<defs>
<symbol id="icon-play-arrow" viewBox="0 -960 960 960">
<path d="M300.78-165.52v-628.96L795.61-480 300.78-165.52Zm106-314.48Zm0 121L597-480 406.78-601v242Z"/>
</symbol>
<symbol id="icon-pause" viewBox="0 -960 960 960">
<path d="M519.76-185.41v-589.18h254.83v589.18H519.76Zm-334.35 0v-589.18h254.83v589.18H185.41Zm425.35-91h72.83v-407.18h-72.83v407.18Zm-334.35 0h72.83v-407.18h-72.83v407.18Zm0-407.18v407.18-407.18Zm334.35 0v407.18-407.18Z"/>
</symbol>
<symbol id="icon-edit" viewBox="0 -960 960 960">
<path d="M202.63-202.87h57.24l374.74-374.74-56.76-57-375.22 375.22v56.52Zm-90.76 91v-185.3l527.52-526.76q12.48-11.72 27.7-17.96 15.21-6.24 31.93-6.24 16.48 0 32.2 6.24 15.71 6.24 27.67 18.72l65.28 65.56q12.48 11.72 18.34 27.56 5.86 15.83 5.86 31.79 0 16.72-5.86 32.05-5.86 15.34-18.34 27.82L297.65-111.87H111.87Zm642.87-586.39-56.24-56.48 56.24 56.48Zm-148.89 92.41-28-28.76 56.76 57-28.76-28.24Z" /> 
</symbol>
<symbol id="icon-close" viewBox="0 -960 960 960">
<path d="M256-192.35 192.35-256l224-224-224-224L256-767.65l224 224 224-224L767.65-704l-224 224 224 224L704-192.35l-224-224-224 224Z"/>
</symbol>
<symbol id="icon-question-mark" viewBox="0 -960 960 960">
<path d="M420.17-321.2q0-85.78 15.82-124.15 15.81-38.37 63.53-78.93 40.05-33.61 60.35-59.39 20.3-25.79 20.3-59.31 0-38.85-26.18-64.53-26.19-25.69-71.84-25.69-48.85 0-75.82 29.93-26.98 29.92-38.22 64.79l-114.48-48.78q22.67-69.02 81.3-117.58 58.64-48.55 147.22-48.55 107.87 0 165.93 60.65 58.05 60.65 58.05 146 0 53.83-21.5 91.36t-67.98 81.58q-48.04 44.84-58.78 69.46-10.74 24.62-10.74 83.14H420.17Zm61.98 250.29q-36.11 0-61.64-25.54-25.53-25.53-25.53-61.64t25.53-61.76q25.53-25.65 61.64-25.65t61.76 25.65q25.66 25.65 25.66 61.76t-25.66 61.64q-25.65 25.54-61.76 25.54Z"/>
</symbol>
<symbol id="icon-stop" viewBox="0 -960 960 960">
<path d="M322.87-637.13v314.26-314.26Zm-91 405.26v-496.26h496.26v496.26H231.87Zm91-91h314.26v-314.26H322.87v314.26Z"/>
</symbol>
<symbol id="icon-arch" viewBox="0 -960 960 960">
<path d="M200-80q-33 0-56.5-23.5T120-160v-451q-18-11-29-28.5T80-680v-120q0-33 23.5-56.5T160-880h640q33 0 56.5 23.5T880-800v120q0 23-11 40.5T840-611v451q0 33-23.5 56.5T760-80H200Zm0-520v440h560v-440H200Zm-40-80h640v-120H160v120Zm200 280h240v-80H360v80Zm120 20Z"/>
</symbol>
</defs>
</svg>